<?xml version="1.0" standalone="no"?>
<!DOCTYPE svg PUBLIC "-//W3C//DTD SVG 20010904//EN"
 "http://www.w3.org/TR/2001/REC-SVG-20010904/DTD/svg10.dtd">
<svg version="1.0" xmlns="http://www.w3.org/2000/svg"
 width="400.000000pt" height="400.000000pt" viewBox="0 0 400.000000 400.000000"
 preserveAspectRatio="xMidYMid meet">
<metadata>
Created by potrace 1.14, written by Peter Selinger 2001-2017
</metadata>
<g transform="translate(0.000000,400.000000) scale(0.100000,-0.100000)"
fill="#000000" stroke="none">
<path d="M380 1935 l0 -1225 110 0 110 0 2 828 c0 455 3 812 5 793 5 -34 53
-169 402 -1126 l178 -490 59 -3 59 -2 76 212 c43 117 157 434 254 703 231 638
235 651 245 699 4 23 8 -329 9 -786 l1 -828 110 0 110 0 0 1225 0 1225 -58 0
-58 0 -111 -302 c-62 -167 -228 -616 -369 -998 -141 -382 -260 -713 -264 -735
-6 -33 -8 -35 -9 -11 0 16 -19 76 -40 135 -22 58 -78 210 -124 336 -265 714
-456 1231 -515 1392 l-67 183 -57 0 -58 0 0 -1225z"/>
<path d="M2222 3058 l3 -103 293 -3 292 -2 0 -1120 0 -1120 110 0 110 0 0
1120 0 1120 290 0 290 0 0 105 0 105 -695 0 -696 0 3 -102z"/>
</g>
</svg>
